<svg width="433" height="61" viewBox="0 0 433 61" fill="none" xmlns="http://www.w3.org/2000/svg">
<mask id="path-1-inside-1_31_1231" fill="white">
<path d="M432.143 59.977C366.956 21.6094 292.874 0.94479 217.239 0.031628C141.605 -0.881534 67.0456 17.9885 0.951645 54.7711L1.37373 55.5295C67.3355 18.8205 141.746 -0.0117904 217.229 0.899546C292.712 1.81088 366.646 22.4342 431.702 60.725L432.143 59.977Z"/>
</mask>
<path d="M432.143 59.977C366.956 21.6094 292.874 0.94479 217.239 0.031628C141.605 -0.881534 67.0456 17.9885 0.951645 54.7711L1.37373 55.5295C67.3355 18.8205 141.746 -0.0117904 217.229 0.899546C292.712 1.81088 366.646 22.4342 431.702 60.725L432.143 59.977Z" stroke="#A3887B" stroke-width="2" mask="url(#path-1-inside-1_31_1231)"/>
</svg>
