<svg width="30" height="30" viewBox="0 0 30 30" fill="none" xmlns="http://www.w3.org/2000/svg">
<path d="M7.92875 6.16125L6.16125 4.39375C5.67375 3.90563 4.88125 3.90563 4.39375 4.39375C3.90563 4.88188 3.90563 5.67312 4.39375 6.16125L6.16125 7.92875C6.2771 8.0451 6.41483 8.13736 6.56651 8.20022C6.71819 8.26308 6.88081 8.29529 7.045 8.295C7.365 8.295 7.685 8.17313 7.92875 7.92875C8.41687 7.44062 8.41687 6.64937 7.92875 6.16125ZM3.75 13.75H1.25C0.56 13.75 0 14.31 0 15C0 15.69 0.56 16.25 1.25 16.25H3.75C4.44 16.25 5 15.69 5 15C5 14.31 4.44 13.75 3.75 13.75ZM7.92875 22.0712C7.44125 21.5831 6.64875 21.5831 6.16125 22.0712L4.39375 23.8387C3.90563 24.3269 3.90563 25.1181 4.39375 25.6063C4.6375 25.8506 4.9575 25.9725 5.2775 25.9725C5.5975 25.9725 5.9175 25.8506 6.16125 25.6063L7.92875 23.8387C8.41687 23.3506 8.41687 22.5594 7.92875 22.0712ZM15 25C14.31 25 13.75 25.56 13.75 26.25V28.75C13.75 29.44 14.31 30 15 30C15.69 30 16.25 29.44 16.25 28.75V26.25C16.25 25.56 15.69 25 15 25ZM25.6063 23.8387L23.8387 22.0712C23.3512 21.5831 22.5588 21.5831 22.0712 22.0712C21.5831 22.5594 21.5831 23.3506 22.0712 23.8387L23.8387 25.6063C24.0825 25.8506 24.4025 25.9725 24.7225 25.9725C25.0425 25.9725 25.3625 25.8506 25.6063 25.6063C26.0944 25.1181 26.0944 24.3269 25.6063 23.8387ZM28.75 13.75H26.25C25.56 13.75 25 14.31 25 15C25 15.69 25.56 16.25 26.25 16.25H28.75C29.44 16.25 30 15.69 30 15C30 14.31 29.44 13.75 28.75 13.75ZM25.6063 4.39375C25.1188 3.90563 24.3262 3.90563 23.8387 4.39375L22.0712 6.16125C21.5831 6.64937 21.5831 7.44062 22.0712 7.92875C22.315 8.17313 22.635 8.295 22.955 8.295C23.275 8.295 23.595 8.17313 23.8387 7.92875L25.6063 6.16125C26.0944 5.67312 26.0944 4.88188 25.6063 4.39375ZM15 0C14.31 0 13.75 0.56 13.75 1.25V3.75C13.75 4.44 14.31 5 15 5C15.69 5 16.25 4.44 16.25 3.75V1.25C16.25 0.56 15.69 0 15 0ZM15 6.875C10.52 6.875 6.875 10.52 6.875 15C6.875 19.48 10.52 23.125 15 23.125C19.48 23.125 23.125 19.48 23.125 15C23.125 10.52 19.48 6.875 15 6.875ZM15 20.625C11.8988 20.625 9.375 18.1012 9.375 15C9.375 11.8988 11.8988 9.375 15 9.375C18.1012 9.375 20.625 11.8988 20.625 15C20.625 18.1012 18.1012 20.625 15 20.625Z" fill="#A3887B"/>
</svg>
