<svg width="30" height="30" viewBox="0 0 30 30" fill="none" xmlns="http://www.w3.org/2000/svg">
<path d="M26.5235 14.3902H28.8281C29.4754 14.3902 30 14.9362 30 15.6098C30 16.2833 29.4754 16.8293 28.8281 16.8293H26.5235C25.8762 16.8293 25.3516 16.2833 25.3516 15.6098C25.3516 14.9362 25.8762 14.3902 26.5235 14.3902ZM1.17188 16.8293H3.47654C4.12377 16.8293 4.64842 16.2833 4.64842 15.6098C4.64842 14.9362 4.12377 14.3902 3.47654 14.3902H1.17188C0.524648 14.3902 0 14.9362 0 15.6098C0 16.2833 0.524648 16.8293 1.17188 16.8293ZM15 4.83738C15.6472 4.83738 16.1719 4.2914 16.1719 3.61787V1.21951C16.1719 0.545976 15.6472 0 15 0C14.3528 0 13.8281 0.545976 13.8281 1.21951V3.61787C13.8281 4.2914 14.3528 4.83738 15 4.83738ZM6.02303 7.99256C6.48059 8.46872 7.22268 8.46884 7.68035 7.99256C8.13803 7.51628 8.13803 6.74409 7.68035 6.26787L6.05074 4.57195C5.59307 4.09567 4.85104 4.09567 4.39342 4.57195C3.9358 5.04823 3.93574 5.82043 4.39342 6.29665L6.02303 7.99256ZM23.977 7.99256L25.6066 6.29665C26.0643 5.82037 26.0643 5.04817 25.6066 4.57195C25.149 4.09573 24.4069 4.09567 23.9493 4.57195L22.3196 6.26787C21.862 6.74415 21.862 7.51634 22.3196 7.99256C22.7772 8.46872 23.5193 8.46884 23.977 7.99256ZM30 22.8049C30 23.4784 29.4754 24.0244 28.8281 24.0244H1.17188C0.524648 24.0244 0 23.4784 0 22.8049C0 22.1313 0.524648 21.5854 1.17188 21.5854H9.29895C7.82092 20.0582 6.90428 17.9434 6.90428 15.6098C6.90428 10.9643 10.536 7.18494 15 7.18494C19.464 7.18494 23.0957 10.9643 23.0957 15.6098C23.0957 17.9434 22.1791 20.0582 20.7011 21.5854H28.8281C29.4754 21.5854 30 22.1313 30 22.8049ZM14.6685 21.5854H15.3315C18.3495 21.406 20.752 18.7945 20.752 15.6098C20.752 12.3091 18.1717 9.62396 15.0001 9.62396C11.8284 9.62396 9.24803 12.3091 9.24803 15.6098C9.24803 18.7945 11.6505 21.406 14.6685 21.5854ZM24.2187 27.561H5.78127C5.13404 27.561 4.60939 28.107 4.60939 28.7805C4.60939 29.454 5.13404 30 5.78127 30H24.2187C24.866 30 25.3906 29.454 25.3906 28.7805C25.3906 28.107 24.866 27.561 24.2187 27.561Z" fill="#A3887B"/>
</svg>
