<svg width="15" height="14" viewBox="0 0 15 14" fill="none" xmlns="http://www.w3.org/2000/svg">
<path d="M10.38 0.51989C9.94 0.56989 9.59 0.92989 9.53 1.36989L8.76 4.63989C8.65 5.09989 8.88 5.57989 9.31 5.77989L9.9 6.04989C9.46 7.19989 8.49 7.98989 8.49 7.98989C8.49 7.98989 7.69 8.95989 6.55 9.39989L6.28 8.80989C6.18257 8.60079 6.01585 8.43181 5.80809 8.33157C5.60033 8.23134 5.3643 8.20601 5.14 8.25989L1.87 9.02989C1.43 9.08989 1.07 9.43989 1.02 9.87989C0.92 10.6999 0.95 11.9799 1.87 12.6599C1.87 12.6599 6.02 15.5799 11.06 10.5399C16.1 5.49989 13.18 1.34989 13.18 1.34989C12.49 0.42989 11.21 0.40989 10.4 0.49989L10.38 0.51989Z" fill="black"/>
</svg>
